<svg xmlns="http://www.w3.org/2000/svg" viewBox="0 0 30 30"><defs><style>.cls-1{fill:#fff;}</style></defs><title>Artboard 10</title><g id="Layer_2" data-name="Layer 2"><g id="Icon_Light_Bell" data-name="Icon/Light/Bell"><path id="Color" class="cls-1" d="M15,28.12a1.87,1.87,0,0,1-1.87-1.87H11.25a3.75,3.75,0,0,0,7.5,0H16.88A1.88,1.88,0,0,1,15,28.12Zm12.27-8.5c-1.64-1.56-2.89-3.19-2.89-8.73A9.14,9.14,0,0,0,15.94,2v-1a.94.94,0,1,0-1.88,0V2a9.14,9.14,0,0,0-8.44,8.92c0,5.53-1.25,7.17-2.89,8.73a2.72,2.72,0,0,0-.66,3,2.81,2.81,0,0,0,2.62,1.76H25.31a2.8,2.8,0,0,0,2.62-1.76A2.72,2.72,0,0,0,27.27,19.62Zm-2,2.88H4.69A.89.89,0,0,1,4,21C6.07,19,7.5,16.85,7.5,10.89A7.32,7.32,0,0,1,15,3.75a7.32,7.32,0,0,1,7.5,7.14C22.5,16.83,23.92,19,26,21A.89.89,0,0,1,25.31,22.5Z"/></g></g></svg>