<svg xmlns="http://www.w3.org/2000/svg" viewBox="0 0 30 30"><defs><style>.cls-1{fill:#fff;}</style></defs><title>Artboard 11</title><g id="Layer_2" data-name="Layer 2"><g id="Icon_Light_Window-restore" data-name="Icon/Light/Window-restore"><path id="Color" class="cls-1" d="M27.19,0H8.44A2.81,2.81,0,0,0,5.62,2.81V5.62H2.81A2.81,2.81,0,0,0,0,8.44V27.19A2.81,2.81,0,0,0,2.81,30H21.56a2.81,2.81,0,0,0,2.82-2.81V24.38h2.81A2.81,2.81,0,0,0,30,21.56V2.81A2.81,2.81,0,0,0,27.19,0ZM1.88,8.44a.94.94,0,0,1,.93-.94H21.56a.94.94,0,0,1,.94.94v4.68H1.88ZM22.5,27.19a.94.94,0,0,1-.94.93H2.81a.93.93,0,0,1-.93-.93V15H22.5Zm5.62-5.63a.94.94,0,0,1-.93.94H24.38V8.44a2.82,2.82,0,0,0-2.82-2.82H7.5V2.81a.94.94,0,0,1,.94-.93H27.19a.93.93,0,0,1,.93.93Z"/></g></g></svg>