<svg xmlns="http://www.w3.org/2000/svg" viewBox="0 0 30 30"><defs><style>.cls-1{fill:#fff;}</style></defs><title>Artboard 8</title><g id="Layer_2" data-name="Layer 2"><g id="Icon_Light_Comment-alt-lines" data-name="Icon/Light/Comment-alt-lines"><path id="Color" class="cls-1" d="M26.25,0H3.75A3.75,3.75,0,0,0,0,3.75V20.62a3.76,3.76,0,0,0,3.75,3.76H9.38V29.3a.7.7,0,0,0,.7.7.64.64,0,0,0,.41-.14l7.32-5.48h8.44A3.76,3.76,0,0,0,30,20.62V3.75A3.75,3.75,0,0,0,26.25,0Zm1.87,20.62a1.88,1.88,0,0,1-1.87,1.88H17.19l-.5.38L11.25,27V22.5H3.75a1.88,1.88,0,0,1-1.87-1.88V3.75A1.87,1.87,0,0,1,3.75,1.88h22.5a1.87,1.87,0,0,1,1.87,1.87ZM16.41,14.06H8a.47.47,0,0,0-.47.47v.94a.47.47,0,0,0,.47.47h8.44a.48.48,0,0,0,.47-.47v-.94A.48.48,0,0,0,16.41,14.06ZM22,8.44H8a.47.47,0,0,0-.47.47v.93a.47.47,0,0,0,.47.47H22a.47.47,0,0,0,.47-.47V8.91A.47.47,0,0,0,22,8.44Z"/></g></g></svg>