<svg xmlns="http://www.w3.org/2000/svg" viewBox="0 0 30 30"><defs><style>.cls-1{fill:#fff;}</style></defs><title>Artboard 7</title><g id="Layer_2" data-name="Layer 2"><g id="Icon_Light_File-signature" data-name="Icon/Light/File-signature"><path id="Color" class="cls-1" d="M29.21,8.75,27.92,7.46a2.69,2.69,0,0,0-3.82,0L20,11.55v-3a2.55,2.55,0,0,0-.73-1.77L14.9,2.4a2.51,2.51,0,0,0-1.77-.73H2.5A2.5,2.5,0,0,0,0,4.17V25.83a2.5,2.5,0,0,0,2.5,2.5h15a2.5,2.5,0,0,0,2.5-2.5V21.64a7.88,7.88,0,0,0,.95-.78l8.26-8.3a2.69,2.69,0,0,0,0-3.81ZM13.33,3.36a.84.84,0,0,1,.39.22L18.09,8a.84.84,0,0,1,.22.39h-5Zm5,22.47a.84.84,0,0,1-.83.84H2.5a.84.84,0,0,1-.83-.84V4.17a.84.84,0,0,1,.83-.84h9.17V8.75A1.24,1.24,0,0,0,12.92,10h5.41v3.2l-2.52,2.52a8.47,8.47,0,0,0-2.48,5.93.56.56,0,0,1-.48-.32,2.35,2.35,0,0,0-3.44-.74l-.72-2.17a1.26,1.26,0,0,0-2.38,0l-.95,2.85a.57.57,0,0,1-.55.4H4.17a.83.83,0,1,0,0,1.66h.64A2.26,2.26,0,0,0,7,21.8l.55-1.67.88,2.63a.83.83,0,0,0,1.53.11l.4-.8a.58.58,0,0,1,1,0,2.24,2.24,0,0,0,2,1.24H15a8.26,8.26,0,0,0,3.33-.71Zm1.44-6.14a6.78,6.78,0,0,1-4.77,2h0a6.72,6.72,0,0,1,2-4.77l6.28-6.24L26,13.41ZM28,11.39l-1.1,1.1L24.18,9.74l1.1-1.1a1,1,0,0,1,1.46,0L28,9.93A1,1,0,0,1,28,11.39Z"/></g></g></svg>