<svg xmlns="http://www.w3.org/2000/svg" viewBox="0 0 30 30"><defs><style>.cls-1{fill:#fff;}</style></defs><title>Artboard 6</title><g id="Layer_2" data-name="Layer 2"><g id="Icon_Light_Users" data-name="Icon/Light/Users"><path id="Color" class="cls-1" d="M25.5,13.5a3.75,3.75,0,1,0-3.75-3.75A3.75,3.75,0,0,0,25.5,13.5Zm0-6a2.25,2.25,0,1,1-2.25,2.25A2.25,2.25,0,0,1,25.5,7.5ZM15,15A5.25,5.25,0,1,0,9.75,9.75,5.25,5.25,0,0,0,15,15Zm0-9a3.75,3.75,0,1,1-3.75,3.75A3.75,3.75,0,0,1,15,6Zm11.44,9H24.56a3.44,3.44,0,0,0-1.92.6,6.63,6.63,0,0,1,1.19,1,2,2,0,0,1,.73-.15h1.88a2.17,2.17,0,0,1,2.06,2.25.75.75,0,0,0,1.5,0A3.66,3.66,0,0,0,26.44,15ZM4.5,13.5A3.75,3.75,0,1,0,.75,9.75,3.75,3.75,0,0,0,4.5,13.5Zm0-6A2.25,2.25,0,1,1,2.25,9.75,2.25,2.25,0,0,1,4.5,7.5Zm14.25,8.44c-1.56,0-1.95.56-3.75.56s-2.19-.56-3.75-.56a5.16,5.16,0,0,0-4.33,2.2,5.35,5.35,0,0,0-.92,3v2.1A2.25,2.25,0,0,0,8.25,25.5h13.5A2.25,2.25,0,0,0,24,23.25v-2.1a5.35,5.35,0,0,0-.92-3A5.16,5.16,0,0,0,18.75,15.94Zm3.75,7.31a.76.76,0,0,1-.75.75H8.25a.76.76,0,0,1-.75-.75v-2.1A3.88,3.88,0,0,1,8.16,19a3.65,3.65,0,0,1,3.08-1.54c1.28,0,1.74.56,3.76.56s2.48-.56,3.75-.56A3.64,3.64,0,0,1,21.83,19a3.81,3.81,0,0,1,.67,2.17v2.1ZM7.36,15.6A3.44,3.44,0,0,0,5.44,15H3.56A3.66,3.66,0,0,0,0,18.75a.76.76,0,0,0,.75.75.76.76,0,0,0,.75-.75A2.17,2.17,0,0,1,3.56,16.5H5.44a2,2,0,0,1,.73.15A7.4,7.4,0,0,1,7.36,15.6Z"/></g></g></svg>