<svg xmlns="http://www.w3.org/2000/svg" viewBox="0 0 62 44"><defs><style>.cls-1{fill:#7f7f7f;}</style></defs><title>Artboard 1_1</title><g id="Layer_2" data-name="Layer 2"><g id="Icon_Light_Users" data-name="Icon/Light/Users"><path id="Color" class="cls-1" d="M52,19a7.5,7.5,0,1,0-7.5-7.5A7.5,7.5,0,0,0,52,19ZM52,7a4.5,4.5,0,1,1-4.5,4.5A4.51,4.51,0,0,1,52,7ZM31,22A10.5,10.5,0,1,0,20.5,11.5,10.5,10.5,0,0,0,31,22ZM31,4a7.5,7.5,0,1,1-7.5,7.5A7.52,7.52,0,0,1,31,4ZM53.88,22H50.12a6.79,6.79,0,0,0-3.85,1.21,12.53,12.53,0,0,1,2.38,2.1A3.69,3.69,0,0,1,50.12,25h3.76A4.34,4.34,0,0,1,58,29.5a1.5,1.5,0,0,0,3,0A7.33,7.33,0,0,0,53.88,22ZM10,19a7.5,7.5,0,1,0-7.5-7.5A7.5,7.5,0,0,0,10,19ZM10,7a4.5,4.5,0,1,1-4.5,4.5A4.51,4.51,0,0,1,10,7ZM38.51,23.88C35.38,23.88,34.6,25,31,25s-4.38-1.12-7.51-1.12a10.32,10.32,0,0,0-8.65,4.39,10.79,10.79,0,0,0-1.84,6v4.2A4.51,4.51,0,0,0,17.5,43h27A4.51,4.51,0,0,0,49,38.5V34.3a10.71,10.71,0,0,0-1.84-6A10.32,10.32,0,0,0,38.51,23.88ZM46,38.5A1.5,1.5,0,0,1,44.5,40h-27A1.5,1.5,0,0,1,16,38.5V34.3A7.79,7.79,0,0,1,17.32,30a7.35,7.35,0,0,1,6.16-3.07C26.05,26.88,27,28,31,28s5-1.12,7.51-1.12A7.33,7.33,0,0,1,44.67,30,7.79,7.79,0,0,1,46,34.3v4.2ZM15.73,23.21A6.84,6.84,0,0,0,11.88,22H8.12A7.33,7.33,0,0,0,1,29.5a1.5,1.5,0,0,0,3,0A4.34,4.34,0,0,1,8.12,25h3.76a3.69,3.69,0,0,1,1.47.31A12.84,12.84,0,0,1,15.73,23.21Z"/></g></g></svg>