<svg xmlns="http://www.w3.org/2000/svg" viewBox="0 0 30 30"><defs><style>.cls-1{fill:#fff;}</style></defs><title>Artboard 5</title><g id="Layer_2" data-name="Layer 2"><g id="Icon_Light_Home" data-name="Icon/Light/Home"><path id="Color" class="cls-1" d="M29.81,13.33l-3.6-2.9V6a.35.35,0,0,0-.35-.35H24.69a.35.35,0,0,0-.35.35V8.92L16.17,2.33a1.87,1.87,0,0,0-2.34,0L.19,13.33a.34.34,0,0,0,0,.49l.73.91a.36.36,0,0,0,.5,0l2.42-1.95V26.19a1.87,1.87,0,0,0,1.87,1.87h6.77a.7.7,0,0,0,.7-.7V19.65l3.74,0v7.71a.7.7,0,0,0,.7.7h6.77a1.87,1.87,0,0,0,1.87-1.87V12.83l2.43,2a.35.35,0,0,0,.49,0l.74-.92A.35.35,0,0,0,29.81,13.33ZM24.34,26.2l-5.6,0V18.49a.71.71,0,0,0-.7-.7H12a.7.7,0,0,0-.7.7V26.2H5.66V11.32L14.78,4a.33.33,0,0,1,.44,0l9.11,7.35V26.2Z"/></g></g></svg>