<svg xmlns="http://www.w3.org/2000/svg" viewBox="0 0 30 30"><defs><style>.cls-1{fill:#fff;}</style></defs><title>Artboard 9</title><g id="Layer_2" data-name="Layer 2"><g id="Icon_Light_User" data-name="Icon/Light/User"><path id="Color" class="cls-1" d="M20.25,16.88c-1.68,0-2.49.93-5.25.93s-3.56-.93-5.25-.93a7.87,7.87,0,0,0-7.87,7.87v2.44A2.81,2.81,0,0,0,4.69,30H25.31a2.81,2.81,0,0,0,2.81-2.81V24.75A7.87,7.87,0,0,0,20.25,16.88Zm6,10.31a.94.94,0,0,1-.94.93H4.69a.94.94,0,0,1-.94-.93V24.75a6,6,0,0,1,6-6c1.15,0,2.29.94,5.25.94s4.1-.94,5.25-.94a6,6,0,0,1,6,6ZM15,15A7.5,7.5,0,1,0,7.5,7.5,7.5,7.5,0,0,0,15,15ZM15,1.88A5.62,5.62,0,1,1,9.38,7.5,5.62,5.62,0,0,1,15,1.88Z"/></g></g></svg>